<?xml version="1.0" encoding="UTF-8" standalone="no"?>
<!-- Created with Inkscape (http://www.inkscape.org/) -->

<svg
   version="1.1"
   id="svg19630"
   xml:space="preserve"
   width="601.33331"
   height="184"
   viewBox="0 0 601.33331 184"
   sodipodi:docname="Lerti_logo_vect.svg"
   inkscape:version="1.1.2 (08b2f3d93c, 2022-04-05)"
   xmlns:inkscape="http://www.inkscape.org/namespaces/inkscape"
   xmlns:sodipodi="http://sodipodi.sourceforge.net/DTD/sodipodi-0.dtd"
   xmlns:xlink="http://www.w3.org/1999/xlink"
   xmlns="http://www.w3.org/2000/svg"
   xmlns:svg="http://www.w3.org/2000/svg"><defs
     id="defs19634"><linearGradient
       inkscape:collect="always"
       id="linearGradient11954"><stop
         style="stop-color:#ffffff;stop-opacity:0.99469298"
         offset="0"
         id="stop11950" /><stop
         style="stop-color:#303132;stop-opacity:1"
         offset="1"
         id="stop11952" /></linearGradient><linearGradient
       inkscape:collect="always"
       id="linearGradient44916"><stop
         style="stop-color:#303132;stop-opacity:1"
         offset="0"
         id="stop44912" /><stop
         style="stop-color:#ffffff;stop-opacity:1"
         offset="1"
         id="stop44914" /></linearGradient><clipPath
       clipPathUnits="userSpaceOnUse"
       id="clipPath19668"><path
         d="m 3596.23,804.313 c 0,68.492 -55.55,123.988 -123.99,123.988 -68.47,0 -124.08,-55.496 -124.08,-123.988 0,-68.473 55.61,-123.997 124.08,-123.997 68.44,0 123.99,55.524 123.99,123.997"
         id="path19666" /></clipPath><clipPath
       clipPathUnits="userSpaceOnUse"
       id="clipPath19686"><path
         d="m 2873.81,698.184 6.33,20.175 c 4.62,13.258 10.25,14.536 26.25,14.536 15.98,0 21.27,-1.278 17.17,-14.536 l -6.33,-20.175 c -4.17,-13.344 -10.25,-14.668 -26.25,-14.668 -16.02,0 -20.82,1.324 -17.17,14.668 z m 10.68,-35.43 c 31.18,0 54.98,5.266 63.62,32.836 l 7.87,25.285 c 8.61,27.563 -11.86,32.785 -43.11,32.785 -31.27,0 -55.05,-5.222 -63.66,-32.785 l -7.89,-25.285 c -8.57,-27.57 12,-32.836 43.17,-32.836 z m 98.22,0.73 27.95,89.496 h -30.82 l -27.9,-89.496 z m -129.24,-16.582 h -30.51 l -27.95,-89.468 h 30.49 z m 721.47,-106.023 -27.95,-89.473 h 30.82 l 27.97,89.473 z m -693.71,51.047 6.41,20.496 c 4.8,15.273 8.4,15.547 23.45,15.547 15.09,0 18.51,-0.274 13.74,-15.547 l -6.41,-20.496 c -4.74,-15.278 -8.36,-15.539 -23.44,-15.539 -15.12,0 -18.54,0.261 -13.75,15.539 z m 7.64,-35.196 c 24.06,0 47.91,1.2 57.36,31.395 l 8.79,28.125 c 9.39,30.203 -13.7,31.406 -37.79,31.406 -24.09,0 -47.91,-1.203 -57.4,-31.406 l -8.78,-28.125 c -9.4,-30.195 13.73,-31.395 37.82,-31.395 z m -121.71,55.692 -6.39,-20.496 c -4.74,-15.278 -8.36,-15.539 -23.45,-15.539 -15.04,0 -18.53,0.261 -13.73,15.539 l 6.41,20.496 c 4.71,15.273 8.34,15.547 23.46,15.547 15.07,0 18.49,-0.274 13.7,-15.547 z m -7.62,35.234 c -24.07,0 -47.91,-1.203 -57.33,-31.406 l -8.8,-28.125 c -9.43,-30.195 13.72,-31.395 37.75,-31.395 24.11,0 47.95,1.2 57.37,31.395 l 8.8,28.125 c 9.48,30.203 -13.66,31.406 -37.79,31.406 z m 918.69,-141.25 -6.48,-20.515 c -4.7,-15.286 -8.38,-15.532 -23.63,-15.532 -15.29,0 -18.76,0.246 -14.02,15.532 l 6.47,20.515 c 4.67,15.254 8.32,15.496 23.64,15.496 15.31,0 18.75,-0.242 14.02,-15.496 z m -7.87,35.188 c -24.41,0 -48.56,-1.203 -57.94,-31.36 l -8.75,-28.191 c -9.53,-30.18 13.83,-31.34 38.32,-31.34 24.32,0 48.49,1.16 57.96,31.34 l 8.71,28.191 c 9.55,30.157 -13.96,31.36 -38.3,31.36 z m -636.51,70.828 -6.39,-20.496 c -4.77,-15.278 -8.34,-15.539 -23.45,-15.539 -15.07,0 -18.5,0.261 -13.76,15.539 l 6.46,20.496 c 4.73,15.273 8.3,15.547 23.46,15.547 15.04,0 18.48,-0.274 13.68,-15.547 z m -7.55,35.234 c -24.15,0 -47.97,-1.203 -57.42,-31.406 l -8.81,-28.125 c -9.4,-30.195 13.7,-31.395 37.79,-31.395 24.14,0 47.97,1.2 57.37,31.395 l 8.81,28.125 c 9.38,30.203 -13.74,31.406 -37.74,31.406 z m 12.8,50.528 6.26,20.175 c 4.62,13.258 10.27,14.536 26.3,14.536 16.01,0 21.25,-1.278 17.08,-14.536 l -6.28,-20.175 c -4.15,-13.344 -10.23,-14.668 -26.23,-14.668 -16.04,0 -20.85,1.324 -17.13,14.668 z m 10.64,-35.43 c 31.2,0 55,5.266 63.65,32.836 l 7.88,25.285 c 8.58,27.563 -11.89,32.785 -43.17,32.785 -31.19,0 -55,-5.222 -63.66,-32.785 l -7.87,-25.285 c -8.61,-27.57 11.91,-32.836 43.17,-32.836 z m 788.03,-156.348 -6.4,-20.515 c -4.72,-15.286 -8.34,-15.532 -23.69,-15.532 -15.33,0 -18.72,0.246 -14.04,15.532 l 6.53,20.515 c 4.75,15.254 8.34,15.496 23.64,15.496 15.23,0 18.75,-0.242 13.96,-15.496 z m -7.89,35.188 c -24.33,0 -48.46,-1.203 -57.96,-31.36 l -8.71,-28.191 c -9.53,-30.18 13.98,-31.34 38.39,-31.34 24.34,0 48.48,1.16 57.87,31.34 l 8.85,28.191 c 9.43,30.157 -14.04,31.36 -38.44,31.36 z m -709.82,105.308 h -30.42 l -27.99,-89.468 h 30.52 z m 27.85,-54.976 6.43,20.496 c 4.78,15.273 8.32,15.547 23.42,15.547 15.13,0 18.49,-0.274 13.78,-15.547 l -6.5,-20.496 c -4.7,-15.278 -8.21,-15.539 -23.37,-15.539 -15.11,0 -18.56,0.261 -13.76,15.539 z m 7.63,-35.196 c 24.1,0 47.91,1.2 57.38,31.395 l 8.79,28.125 c 9.42,30.203 -13.7,31.406 -37.8,31.406 -24.08,0 -47.94,-1.203 -57.37,-31.406 l -8.79,-28.125 c -9.41,-30.195 13.72,-31.395 37.79,-31.395 z m -7.55,106.754 27.91,89.496 h -30.79 l -27.95,-89.496 z m 586.49,-122.605 -27.97,-89.473 h 30.9 l 27.91,89.473 z m -810.35,0 -27.93,-89.473 h 30.93 l 27.93,89.473 z m -106.65,122.605 27.89,89.496 h -30.69 l -27.99,-89.496 z m 272.48,-122.605 -27.98,-89.473 h 30.86 l 27.98,89.473 z m 165.76,0 -27.96,-89.473 h 30.92 l 27.89,89.473 z m -388.08,-34.602 -6.26,-20.156 c -4.17,-13.379 -10.33,-14.703 -26.32,-14.703 -16.1,0 -20.93,1.324 -17.21,14.703 l 6.3,20.156 c 4.62,13.254 10.26,14.543 26.31,14.543 16.03,0 21.36,-1.289 17.18,-14.543 z m -10.74,35.317 c -31.25,0 -55.16,-5.266 -63.74,-32.793 l -7.9,-25.317 c -8.64,-27.546 11.94,-32.781 43.29,-32.781 31.34,0 55.26,5.235 63.83,32.781 l 7.87,25.317 c 8.6,27.527 -11.98,32.793 -43.35,32.793 z m 176.55,-35.317 -6.26,-20.156 c -4.24,-13.379 -10.31,-14.703 -26.41,-14.703 -16.05,0 -20.84,1.324 -17.15,14.703 l 6.29,20.156 c 4.54,13.254 10.26,14.543 26.32,14.543 16.04,0 21.4,-1.289 17.21,-14.543 z m -10.76,35.317 c -31.3,0 -55.18,-5.266 -63.77,-32.793 l -7.89,-25.317 c -8.64,-27.546 11.94,-32.781 43.27,-32.781 31.34,0 55.15,5.235 63.82,32.781 l 7.86,25.317 c 8.69,27.527 -11.89,32.793 -43.29,32.793 z m 270.51,-31.36 -8.79,-28.191 c -9.43,-30.18 14,-31.34 38.36,-31.34 4.52,0 9.04,0.11 13.43,0.391 l 5.42,20.105 c -3.12,-0.789 -7.12,-0.84 -12.71,-0.84 -15.32,0 -18.77,0.246 -13.96,15.532 l 6.34,20.515 c 4.81,15.254 8.48,15.496 23.73,15.496 4.3,0 7.57,-0.066 10.06,-0.425 l 5.34,19.988 c -3.02,0.098 -6.15,0.129 -9.29,0.129 -24.39,0 -48.53,-1.203 -57.93,-31.36 z m 225.29,-3.828 -6.4,-20.515 c -4.67,-15.286 -8.41,-15.532 -23.62,-15.532 -15.34,0 -18.77,0.246 -13.97,15.532 l 6.32,20.515 c 4.82,15.254 8.47,15.496 23.74,15.496 15.29,0 18.75,-0.242 13.93,-15.496 z m -7.84,35.188 c -24.35,0 -48.54,-1.203 -57.94,-31.36 l -8.77,-28.191 c -9.4,-30.18 14.03,-31.34 38.37,-31.34 24.32,0 48.55,1.16 57.96,31.34 l 8.77,28.191 c 9.44,30.157 -13.95,31.36 -38.39,31.36 z m -802.02,156.59 6.25,20.175 c 4.63,13.258 10.25,14.536 26.26,14.536 16.02,0 21.26,-1.278 17.15,-14.536 l -6.27,-20.175 c -4.21,-13.344 -10.29,-14.668 -26.28,-14.668 -16.03,0 -20.85,1.324 -17.11,14.668 z m 10.59,-35.43 c 31.31,0 55.05,5.266 63.61,32.836 l 7.94,25.285 c 8.62,27.563 -11.94,32.785 -43.12,32.785 -31.29,0 -55.03,-5.222 -63.67,-32.785 l -7.87,-25.285 c -8.62,-27.57 11.89,-32.836 43.11,-32.836 z m -23.49,-15.852 h -30.46 l -27.95,-89.468 h 30.51 z m 62.68,-106.023 -27.97,-89.473 h 30.91 l 27.91,89.473 z m -56.45,-34.602 -6.34,-20.156 c -4.17,-13.379 -10.32,-14.703 -26.39,-14.703 -16.01,0 -20.84,1.324 -17.18,14.703 l 6.36,20.156 c 4.54,13.254 10.24,14.543 26.29,14.543 16.05,0 21.35,-1.289 17.26,-14.543 z m -10.82,35.317 c -31.33,0 -55.2,-5.266 -63.76,-32.793 l -7.91,-25.317 c -8.59,-27.546 11.99,-32.781 43.32,-32.781 31.3,0 55.18,5.235 63.77,32.781 l 7.93,25.317 c 8.6,27.527 -11.98,32.793 -43.35,32.793 z m 609.41,70.828 -6.41,-20.496 c -4.8,-15.278 -8.34,-15.539 -23.43,-15.539 -15.08,0 -18.51,0.261 -13.81,15.539 l 6.41,20.496 c 4.84,15.273 8.4,15.547 23.45,15.547 15.13,0 18.58,-0.274 13.79,-15.547 z m -65.01,3.828 -8.79,-28.125 c -9.4,-30.195 13.7,-31.395 37.8,-31.395 24.07,0 47.97,1.2 57.38,31.395 l 8.77,28.125 c 9.44,30.203 -13.7,31.406 -37.79,31.406 -24.1,0 -47.88,-1.203 -57.37,-31.406 z m 244.05,-28.125 8.8,28.125 c 1.33,4.172 1.91,7.766 2.07,10.898 -6.01,-0.605 -12.07,-0.925 -18.24,-0.925 -2.61,0 -5.11,0.269 -7.7,0.386 l -18.3,-68.269 c 14.68,2.683 27.22,9.902 33.37,29.785 z M 3328.4,557.434 h 30.42 l 28,89.468 h -30.57 z m -129.18,-51.157 -6.3,-20.156 c -4.14,-13.379 -10.28,-14.703 -26.38,-14.703 -16.01,0 -20.8,1.324 -17.14,14.703 l 6.28,20.156 c 4.58,13.254 10.29,14.543 26.3,14.543 16.1,0 21.32,-1.289 17.24,-14.543 z m -10.77,35.317 c -31.3,0 -55.14,-5.266 -63.77,-32.793 l -7.87,-25.317 c -8.59,-27.546 11.98,-32.781 43.29,-32.781 31.31,0 55.2,5.235 63.78,32.781 l 7.96,25.317 c 8.58,27.527 -12.07,32.793 -43.39,32.793 z m 432.47,50.332 6.34,20.496 c 4.79,15.273 8.3,15.547 23.44,15.547 15.1,0 18.56,-0.274 13.76,-15.547 l -6.45,-20.496 c -4.68,-15.278 -8.34,-15.539 -23.39,-15.539 -15.06,0 -18.51,0.261 -13.7,15.539 z m 7.61,-35.196 c 24.08,0 47.91,1.2 57.33,31.395 l 8.75,28.125 c 9.45,30.203 -13.62,31.406 -37.76,31.406 -24.1,0 -47.91,-1.203 -57.41,-31.406 l -8.71,-28.125 c -9.39,-30.195 13.7,-31.395 37.8,-31.395 z m -112.05,0.704 26.07,83.281 c -10.79,-4.641 -22.1,-8.281 -33.89,-10.742 l -22.59,-72.539 z m 48.73,0 27.95,89.48 h -30.85 l -27.92,-89.48 z m 545.35,161.062 -6.4,-20.543 c -4.82,-15.265 -8.34,-15.492 -23.65,-15.492 -15.23,0 -18.71,0.227 -13.94,15.492 l 6.45,20.543 c 4.78,15.254 8.41,15.492 23.64,15.492 15.15,0 18.67,-0.238 13.9,-15.492 z m -7.75,35.164 c -24.35,0 -48.36,-1.199 -57.85,-31.371 l -8.79,-28.117 c -9.45,-30.219 13.85,-31.418 38.2,-31.418 24.34,0 48.34,1.199 57.81,31.418 l 8.79,28.117 c 9.43,30.172 -13.95,31.371 -38.16,31.371 z m -92.35,-90.176 27.9,89.496 h -30.72 l -27.93,-89.496 z m -290.19,-16.582 -28.01,-89.468 h 30.55 l 27.89,89.468 z m 259.56,-34.48 -6.4,-20.496 c -4.89,-15.278 -8.44,-15.539 -23.51,-15.539 -15.06,0 -18.51,0.261 -13.7,15.539 l 6.32,20.496 c 4.81,15.273 8.34,15.547 23.47,15.547 15.11,0 18.49,-0.274 13.82,-15.547 z m -7.62,35.234 c -24.13,0 -48.03,-1.203 -57.33,-31.406 l -8.9,-28.125 c -9.34,-30.195 13.7,-31.395 37.8,-31.395 24.09,0 48,1.2 57.36,31.395 l 8.79,28.125 c 9.44,30.203 -13.59,31.406 -37.72,31.406 z m -658.99,15.828 12.38,39.84 c -7.8,11.293 -14.31,23.547 -19.34,36.539 l -23.86,-76.379 z m 724.91,-106.05 27.86,89.468 h -30.43 l -28,-89.468 z m -130.61,140.519 6.43,20.543 c 4.76,15.254 8.34,15.492 23.62,15.492 15.22,0 18.67,-0.238 13.82,-15.492 l -6.34,-20.543 c -4.75,-15.265 -8.32,-15.492 -23.61,-15.492 -15.25,0 -18.68,0.227 -13.92,15.492 z m 7.83,-35.199 c 24.28,0 48.33,1.199 57.79,31.418 l 8.74,28.117 c 9.42,30.172 -13.89,31.371 -38.14,31.371 -24.36,0 -48.41,-1.199 -57.89,-31.371 l -8.69,-28.117 c -9.57,-30.219 13.79,-31.418 38.19,-31.418 z m -64,0.73 27.99,89.496 h -30.83 l -27.91,-89.496 z m -647,34.7 6.28,20.175 c 4.59,13.258 10.25,14.536 26.24,14.536 15.95,0 21.26,-1.278 17.09,-14.536 l -6.2,-20.175 c -4.22,-13.344 -10.3,-14.668 -26.31,-14.668 -15.99,0 -20.81,1.324 -17.1,14.668 z m 10.61,-35.43 c 31.27,0 55.05,5.266 63.62,32.836 l 7.93,25.285 c 8.57,27.563 -11.96,32.785 -43.18,32.785 -31.16,0 -54.98,-5.222 -63.64,-32.785 l -7.85,-25.285 c -8.62,-27.57 11.89,-32.836 43.12,-32.836 z m 533.46,35.199 6.39,20.543 c 4.82,15.254 8.4,15.492 23.73,15.492 15.1,0 18.63,-0.238 13.81,-15.492 l -6.33,-20.543 c -4.83,-15.265 -8.4,-15.492 -23.62,-15.492 -15.26,0 -18.71,0.227 -13.98,15.492 z m 7.74,-35.199 c 24.34,0 48.43,1.199 57.85,31.418 l 8.78,28.117 c 9.42,30.172 -13.87,31.371 -38.18,31.371 -24.26,0 -48.41,-1.199 -57.83,-31.371 l -8.74,-28.117 c -9.48,-30.219 13.8,-31.418 38.12,-31.418 z m 241.2,-156.348 -6.4,-20.515 c -4.81,-15.286 -8.37,-15.532 -23.68,-15.532 -15.33,0 -18.77,0.246 -13.9,15.532 l 6.35,20.515 c 4.7,15.254 8.33,15.496 23.7,15.496 15.2,0 18.75,-0.242 13.93,-15.496 z m -7.87,35.188 c -24.32,0 -48.47,-1.203 -57.9,-31.36 l -8.82,-28.191 c -9.35,-30.18 14.02,-31.34 38.34,-31.34 24.41,0 48.58,1.16 57.98,31.34 l 8.77,28.191 c 9.4,30.157 -13.97,31.36 -38.37,31.36 z m 66.72,15.84 h 30.51 l 28,89.468 h -30.55 z m -162.14,-16.555 -27.98,-89.473 h 30.92 l 27.93,89.473 z m 131.67,-89.473 h 30.89 l 27.92,89.473 h -30.78 z m -387.36,246.547 6.4,20.543 c 4.81,15.254 8.36,15.492 23.72,15.492 15.11,0 18.63,-0.238 13.81,-15.492 l -6.33,-20.543 c -4.82,-15.265 -8.4,-15.492 -23.64,-15.492 -15.23,0 -18.71,0.227 -13.96,15.492 z m 7.74,-35.199 c 24.34,0 48.43,1.199 57.86,31.418 l 8.77,28.117 c 9.39,30.172 -13.91,31.371 -38.18,31.371 -11.51,0 -22.97,-0.363 -32.87,-3.887 -7.45,-23.214 -19.64,-44.293 -35.28,-62.273 -4.08,-23.66 17.33,-24.746 39.7,-24.746 z m 262.22,-15.852 h -30.39 l -28.01,-89.468 h 30.49 z m -129.75,-54.976 6.34,20.496 c 4.83,15.273 8.32,15.547 23.44,15.547 15.11,0 18.51,-0.274 13.76,-15.547 l -6.4,-20.496 c -4.74,-15.278 -8.39,-15.539 -23.49,-15.539 -15.05,0 -18.49,0.261 -13.65,15.539 z m 7.53,-35.196 c 24.09,0 47.95,1.2 57.34,31.395 l 8.87,28.125 c 9.39,30.203 -13.72,31.406 -37.82,31.406 -24.05,0 -47.98,-1.203 -57.3,-31.406 l -8.86,-28.125 c -9.4,-30.195 13.64,-31.395 37.77,-31.395"
         id="path19684" /></clipPath><linearGradient
       x1="0"
       y1="0"
       x2="1"
       y2="0"
       gradientUnits="userSpaceOnUse"
       gradientTransform="matrix(-1403.87,304.874,304.874,1403.87,4082.14,450.312)"
       spreadMethod="pad"
       id="linearGradient19694"><stop
         style="stop-opacity:1;stop-color:#eeedee"
         offset="0"
         id="stop19688" /><stop
         style="stop-opacity:1;stop-color:#eeedee"
         offset="0.112359"
         id="stop19690" /><stop
         style="stop-opacity:1;stop-color:#bdbcbd"
         offset="1"
         id="stop19692" /></linearGradient><linearGradient
       inkscape:collect="always"
       xlink:href="#linearGradient19694"
       id="linearGradient22140"
       x1="4199.7559"
       y1="610.44629"
       x2="2529.1538"
       y2="600.63074"
       gradientUnits="userSpaceOnUse" /><linearGradient
       inkscape:collect="always"
       xlink:href="#linearGradient44916"
       id="linearGradient22462"
       gradientUnits="userSpaceOnUse"
       x1="4146.2466"
       y1="619.31329"
       x2="2607.1975"
       y2="612.2038" /><linearGradient
       inkscape:collect="always"
       xlink:href="#linearGradient11954"
       id="linearGradient11956"
       x1="3246.6431"
       y1="822.95416"
       x2="3728.978"
       y2="817.065"
       gradientUnits="userSpaceOnUse" /></defs><sodipodi:namedview
     id="namedview19632"
     pagecolor="#ffffff"
     bordercolor="#666666"
     borderopacity="1.0"
     inkscape:pageshadow="2"
     inkscape:pageopacity="0.0"
     inkscape:pagecheckerboard="0"
     showgrid="false"
     inkscape:zoom="2.8284271"
     inkscape:cx="432.57258"
     inkscape:cy="167.40753"
     inkscape:window-width="1848"
     inkscape:window-height="1136"
     inkscape:window-x="72"
     inkscape:window-y="27"
     inkscape:window-maximized="1"
     inkscape:current-layer="g19638" /><g
     id="g19636"
     inkscape:groupmode="layer"
     inkscape:label="ink_ext_XXXXXX"
     transform="matrix(1.3333333,0,0,-1.3333333,0,184)"><g
       id="g19638"
       transform="scale(0.1)"><path
         d="M 0,0 H 4510 V 1380 H 0 Z"
         style="fill:#ffffff;fill-opacity:0.00843134;fill-rule:nonzero;stroke:none"
         id="path19640"
         inkscape:export-filename="/home/thibaut/Documents/Images/Logo/Lerti_Logo2/Lerti_logo.png"
         inkscape:export-xdpi="319.29047"
         inkscape:export-ydpi="319.29047" /><path
         id="path19650"
         style="fill:#fdfdfd;fill-opacity:1;fill-rule:nonzero;stroke:#000000;stroke-opacity:1;stroke-width:1.50000004;stroke-miterlimit:4;stroke-dasharray:none"
         d="m 2694.09,941.355 -32.43,-117.949 h -169.78 l 33.82,117.949 z m -42.97,-164.187 -88.09,-321.941 h -171.15 l 89.43,321.941 h 169.81 m -376.13,0 -85.26,-321.941 h -161.34 l 87.37,321.941 z m 182.44,164.187 -32.32,-116.937 h -469.28 l 74.68,116.937 h 426.92 M 1922.87,824.418 h -546.01 l 74.68,116.937 h 400.89 c 10.79,0 21.71,-3.757 32.74,-11.234 11.04,-7.527 19.38,-16.473 25.04,-26.805 8.45,-15.496 12.66,-41.785 12.66,-78.898 z m -8.44,-47.152 c -3.78,-28.735 -20.2,-55.805 -49.33,-81.215 -13.19,-11.789 -24.18,-19.078 -33.12,-21.93 10.8,-16.941 16.22,-34.824 16.22,-53.633 0,-10.859 -1.66,-26.125 -4.96,-45.925 -1.86,-12.227 -14.1,-52.043 -36.62,-119.336 h -157.81 l 56.37,194.863 H 1538.89 L 1479,455.227 h -164.13 l 94.42,322.039 h 505.14 m -561.77,164.089 -30.99,-117.949 h -459.4 l 76.097,117.949 z m -45.81,-164.089 -33.84,-128.235 h -228.98 l -18.31,-66.648 h 226.87 L 1218.8,455.227 H 805.211 l 85.949,322.039 h 415.69 m -487.104,-202.039 -98.648,-120 H 378.684 l 135.187,483.89 h 171.207 l -100.64,-363.89 h 235.308" /><path
         d="m 3613.46,799.918 h 539.7"
         style="fill:none;stroke:#f28241;stroke-width:32.822;stroke-linecap:round;stroke-linejoin:miter;stroke-miterlimit:4;stroke-dasharray:none;stroke-opacity:1"
         id="path19652" /><path
         d="m 2694.21,799.918 h 636.34"
         style="fill:#ffffff;stroke:#f28241;stroke-width:32.822;stroke-linecap:round;stroke-linejoin:miter;stroke-miterlimit:4;stroke-dasharray:none;stroke-opacity:1;fill-opacity:1"
         id="path19654" /><path
         d="M 3511.31,943.066 3574,1171.16"
         style="fill:#ffffff;stroke:#f28241;stroke-width:39.943;stroke-linecap:round;stroke-linejoin:miter;stroke-miterlimit:4;stroke-dasharray:none;stroke-opacity:1;fill-opacity:1"
         id="path19656" /><path
         d="m 3376.8,454.773 57.9,210.415"
         style="fill:none;stroke:#f28241;stroke-width:39.943;stroke-linecap:round;stroke-linejoin:miter;stroke-miterlimit:4;stroke-dasharray:none;stroke-opacity:1"
         id="path19658" /><path
         d="m 3610.18,804.313 c 0,-76.243 -61.8,-137.965 -138.01,-137.965 -76.23,0 -137.97,61.722 -137.97,137.965 0,76.179 61.74,137.988 137.97,137.988 76.21,0 138.01,-61.809 138.01,-137.988 z"
         style="fill:none;stroke:#f28241;stroke-width:29.959;stroke-linecap:butt;stroke-linejoin:miter;stroke-miterlimit:4;stroke-dasharray:none;stroke-opacity:1"
         id="path19660" /><g
         id="g19662"
         style="fill-opacity:1;fill:url(#linearGradient11956)"><g
           id="g19664"
           clip-path="url(#clipPath19668)"
           style="fill-opacity:1;fill:url(#linearGradient11956)"><path
             d="m 3456.5,789.555 10.86,38.367 c 7.16,25.23 -0.58,27.738 -24.33,27.738 -23.84,0 -32.27,-2.508 -40.1,-27.738 l -10.96,-38.367 c -6.52,-25.461 0.59,-27.953 24.37,-27.953 23.83,0 32.97,2.492 40.16,27.953 z m -113.05,-5.02 13.64,48.195 c 14.85,52.461 50.64,62.465 97.1,62.465 46.41,0 76.57,-10.004 61.74,-62.465 l -13.72,-48.195 c -14.92,-52.469 -50.61,-62.484 -97.11,-62.484 -46.41,0 -76.49,10.015 -61.65,62.484"
             style="fill:url(#linearGradient11956);fill-opacity:1;fill-rule:nonzero;stroke:none"
             id="path19670" /><path
             d="m 3551.31,723.43 h -45.81 l 48.26,170.359 h 45.78 L 3551.31,723.43"
             style="fill:url(#linearGradient11956);fill-opacity:1;fill-rule:nonzero;stroke:none"
             id="path19672" /></g></g><g
         id="g19674"
         transform="scale(10)"
         style="fill:#ffffff;fill-opacity:1;stroke:#000000;stroke-opacity:1;stroke-width:0.15;stroke-miterlimit:4;stroke-dasharray:none"><text
           transform="matrix(0.96746033,0,-0.25302273,-0.93380285,29.7938,21.7629)"
           style="font-variant:normal;font-weight:900;font-size:28.7572px;font-family:EurostileExtended;-inkscape-font-specification:EurostileExtended-Black;writing-mode:lr-tb;fill:#ffffff;fill-opacity:1;fill-rule:nonzero;stroke:#000000;stroke-opacity:1;stroke-width:0.15781457;stroke-miterlimit:4;stroke-dasharray:none"
           id="text19678"><tspan
             x="0 22.34437 44.314896 51.504078 74.59549 93.547234 115.20078 137.83208 159.34299 180.99582 188.18483 210.64445 233.27594 267.43951 289.09372 308.04474 317.24658 340.16632 362.79849"
             y="0"
             sodipodi:role="line"
             id="tspan19676">La preuve numérique</tspan></text></g><g
         id="g19680"
         style="fill-opacity:1.0;fill:url(#linearGradient22140);stroke-width:2.25000006;stroke-miterlimit:4;stroke-dasharray:none;stroke:none;stroke-opacity:0.99864125"><g
           id="g19682"
           clip-path="url(#clipPath19686)"
           style="fill-opacity:1.0;fill:url(#linearGradient22140);stroke-width:2.25000006;stroke-miterlimit:4;stroke-dasharray:none;stroke:none;stroke-opacity:0.99864125"><path
             d="m 2873.81,698.184 6.33,20.175 c 4.62,13.258 10.25,14.536 26.25,14.536 15.98,0 21.27,-1.278 17.17,-14.536 l -6.33,-20.175 c -4.17,-13.344 -10.25,-14.668 -26.25,-14.668 -16.02,0 -20.82,1.324 -17.17,14.668 z m 10.68,-35.43 c 31.18,0 54.98,5.266 63.62,32.836 l 7.87,25.285 c 8.61,27.563 -11.86,32.785 -43.11,32.785 -31.27,0 -55.05,-5.222 -63.66,-32.785 l -7.89,-25.285 c -8.57,-27.57 12,-32.836 43.17,-32.836 z m 98.22,0.73 27.95,89.496 h -30.82 l -27.9,-89.496 z m -129.24,-16.582 h -30.51 l -27.95,-89.468 h 30.49 z m 721.47,-106.023 -27.95,-89.473 h 30.82 l 27.97,89.473 z m -693.71,51.047 6.41,20.496 c 4.8,15.273 8.4,15.547 23.45,15.547 15.09,0 18.51,-0.274 13.74,-15.547 l -6.41,-20.496 c -4.74,-15.278 -8.36,-15.539 -23.44,-15.539 -15.12,0 -18.54,0.261 -13.75,15.539 z m 7.64,-35.196 c 24.06,0 47.91,1.2 57.36,31.395 l 8.79,28.125 c 9.39,30.203 -13.7,31.406 -37.79,31.406 -24.09,0 -47.91,-1.203 -57.4,-31.406 l -8.78,-28.125 c -9.4,-30.195 13.73,-31.395 37.82,-31.395 z m -121.71,55.692 -6.39,-20.496 c -4.74,-15.278 -8.36,-15.539 -23.45,-15.539 -15.04,0 -18.53,0.261 -13.73,15.539 l 6.41,20.496 c 4.71,15.273 8.34,15.547 23.46,15.547 15.07,0 18.49,-0.274 13.7,-15.547 z m -7.62,35.234 c -24.07,0 -47.91,-1.203 -57.33,-31.406 l -8.8,-28.125 c -9.43,-30.195 13.72,-31.395 37.75,-31.395 24.11,0 47.95,1.2 57.37,31.395 l 8.8,28.125 c 9.48,30.203 -13.66,31.406 -37.79,31.406 z m 918.69,-141.25 -6.48,-20.515 c -4.7,-15.286 -8.38,-15.532 -23.63,-15.532 -15.29,0 -18.76,0.246 -14.02,15.532 l 6.47,20.515 c 4.67,15.254 8.32,15.496 23.64,15.496 15.31,0 18.75,-0.242 14.02,-15.496 z m -7.87,35.188 c -24.41,0 -48.56,-1.203 -57.94,-31.36 l -8.75,-28.191 c -9.53,-30.18 13.83,-31.34 38.32,-31.34 24.32,0 48.49,1.16 57.96,31.34 l 8.71,28.191 c 9.55,30.157 -13.96,31.36 -38.3,31.36 z m -636.51,70.828 -6.39,-20.496 c -4.77,-15.278 -8.34,-15.539 -23.45,-15.539 -15.07,0 -18.5,0.261 -13.76,15.539 l 6.46,20.496 c 4.73,15.273 8.3,15.547 23.46,15.547 15.04,0 18.48,-0.274 13.68,-15.547 z m -7.55,35.234 c -24.15,0 -47.97,-1.203 -57.42,-31.406 l -8.81,-28.125 c -9.4,-30.195 13.7,-31.395 37.79,-31.395 24.14,0 47.97,1.2 57.37,31.395 l 8.81,28.125 c 9.38,30.203 -13.74,31.406 -37.74,31.406 z m 12.8,50.528 6.26,20.175 c 4.62,13.258 10.27,14.536 26.3,14.536 16.01,0 21.25,-1.278 17.08,-14.536 l -6.28,-20.175 c -4.15,-13.344 -10.23,-14.668 -26.23,-14.668 -16.04,0 -20.85,1.324 -17.13,14.668 z m 10.64,-35.43 c 31.2,0 55,5.266 63.65,32.836 l 7.88,25.285 c 8.58,27.563 -11.89,32.785 -43.17,32.785 -31.19,0 -55,-5.222 -63.66,-32.785 l -7.87,-25.285 c -8.61,-27.57 11.91,-32.836 43.17,-32.836 z m 788.03,-156.348 -6.4,-20.515 c -4.72,-15.286 -8.34,-15.532 -23.69,-15.532 -15.33,0 -18.72,0.246 -14.04,15.532 l 6.53,20.515 c 4.75,15.254 8.34,15.496 23.64,15.496 15.23,0 18.75,-0.242 13.96,-15.496 z m -7.89,35.188 c -24.33,0 -48.46,-1.203 -57.96,-31.36 l -8.71,-28.191 c -9.53,-30.18 13.98,-31.34 38.39,-31.34 24.34,0 48.48,1.16 57.87,31.34 l 8.85,28.191 c 9.43,30.157 -14.04,31.36 -38.44,31.36 z m -709.82,105.308 h -30.42 l -27.99,-89.468 h 30.52 z m 27.85,-54.976 6.43,20.496 c 4.78,15.273 8.32,15.547 23.42,15.547 15.13,0 18.49,-0.274 13.78,-15.547 l -6.5,-20.496 c -4.7,-15.278 -8.21,-15.539 -23.37,-15.539 -15.11,0 -18.56,0.261 -13.76,15.539 z m 7.63,-35.196 c 24.1,0 47.91,1.2 57.38,31.395 l 8.79,28.125 c 9.42,30.203 -13.7,31.406 -37.8,31.406 -24.08,0 -47.94,-1.203 -57.37,-31.406 l -8.79,-28.125 c -9.41,-30.195 13.72,-31.395 37.79,-31.395 z m -7.55,106.754 27.91,89.496 h -30.79 l -27.95,-89.496 z m 586.49,-122.605 -27.97,-89.473 h 30.9 l 27.91,89.473 z m -810.35,0 -27.93,-89.473 h 30.93 l 27.93,89.473 z m -106.65,122.605 27.89,89.496 h -30.69 l -27.99,-89.496 z m 272.48,-122.605 -27.98,-89.473 h 30.86 l 27.98,89.473 z m 165.76,0 -27.96,-89.473 h 30.92 l 27.89,89.473 z m -388.08,-34.602 -6.26,-20.156 c -4.17,-13.379 -10.33,-14.703 -26.32,-14.703 -16.1,0 -20.93,1.324 -17.21,14.703 l 6.3,20.156 c 4.62,13.254 10.26,14.543 26.31,14.543 16.03,0 21.36,-1.289 17.18,-14.543 z m -10.74,35.317 c -31.25,0 -55.16,-5.266 -63.74,-32.793 l -7.9,-25.317 c -8.64,-27.546 11.94,-32.781 43.29,-32.781 31.34,0 55.26,5.235 63.83,32.781 l 7.87,25.317 c 8.6,27.527 -11.98,32.793 -43.35,32.793 z m 176.55,-35.317 -6.26,-20.156 c -4.24,-13.379 -10.31,-14.703 -26.41,-14.703 -16.05,0 -20.84,1.324 -17.15,14.703 l 6.29,20.156 c 4.54,13.254 10.26,14.543 26.32,14.543 16.04,0 21.4,-1.289 17.21,-14.543 z m -10.76,35.317 c -31.3,0 -55.18,-5.266 -63.77,-32.793 l -7.89,-25.317 c -8.64,-27.546 11.94,-32.781 43.27,-32.781 31.34,0 55.15,5.235 63.82,32.781 l 7.86,25.317 c 8.69,27.527 -11.89,32.793 -43.29,32.793 z m 270.51,-31.36 -8.79,-28.191 c -9.43,-30.18 14,-31.34 38.36,-31.34 4.52,0 9.04,0.11 13.43,0.391 l 5.42,20.105 c -3.12,-0.789 -7.12,-0.84 -12.71,-0.84 -15.32,0 -18.77,0.246 -13.96,15.532 l 6.34,20.515 c 4.81,15.254 8.48,15.496 23.73,15.496 4.3,0 7.57,-0.066 10.06,-0.425 l 5.34,19.988 c -3.02,0.098 -6.15,0.129 -9.29,0.129 -24.39,0 -48.53,-1.203 -57.93,-31.36 z m 225.29,-3.828 -6.4,-20.515 c -4.67,-15.286 -8.41,-15.532 -23.62,-15.532 -15.34,0 -18.77,0.246 -13.97,15.532 l 6.32,20.515 c 4.82,15.254 8.47,15.496 23.74,15.496 15.29,0 18.75,-0.242 13.93,-15.496 z m -7.84,35.188 c -24.35,0 -48.54,-1.203 -57.94,-31.36 l -8.77,-28.191 c -9.4,-30.18 14.03,-31.34 38.37,-31.34 24.32,0 48.55,1.16 57.96,31.34 l 8.77,28.191 c 9.44,30.157 -13.95,31.36 -38.39,31.36 z m -802.02,156.59 6.25,20.175 c 4.63,13.258 10.25,14.536 26.26,14.536 16.02,0 21.26,-1.278 17.15,-14.536 l -6.27,-20.175 c -4.21,-13.344 -10.29,-14.668 -26.28,-14.668 -16.03,0 -20.85,1.324 -17.11,14.668 z m 10.59,-35.43 c 31.31,0 55.05,5.266 63.61,32.836 l 7.94,25.285 c 8.62,27.563 -11.94,32.785 -43.12,32.785 -31.29,0 -55.03,-5.222 -63.67,-32.785 l -7.87,-25.285 c -8.62,-27.57 11.89,-32.836 43.11,-32.836 z m -23.49,-15.852 h -30.46 l -27.95,-89.468 h 30.51 z m 62.68,-106.023 -27.97,-89.473 h 30.91 l 27.91,89.473 z m -56.45,-34.602 -6.34,-20.156 c -4.17,-13.379 -10.32,-14.703 -26.39,-14.703 -16.01,0 -20.84,1.324 -17.18,14.703 l 6.36,20.156 c 4.54,13.254 10.24,14.543 26.29,14.543 16.05,0 21.35,-1.289 17.26,-14.543 z m -10.82,35.317 c -31.33,0 -55.2,-5.266 -63.76,-32.793 l -7.91,-25.317 c -8.59,-27.546 11.99,-32.781 43.32,-32.781 31.3,0 55.18,5.235 63.77,32.781 l 7.93,25.317 c 8.6,27.527 -11.98,32.793 -43.35,32.793 z m 609.41,70.828 -6.41,-20.496 c -4.8,-15.278 -8.34,-15.539 -23.43,-15.539 -15.08,0 -18.51,0.261 -13.81,15.539 l 6.41,20.496 c 4.84,15.273 8.4,15.547 23.45,15.547 15.13,0 18.58,-0.274 13.79,-15.547 z m -65.01,3.828 -8.79,-28.125 c -9.4,-30.195 13.7,-31.395 37.8,-31.395 24.07,0 47.97,1.2 57.38,31.395 l 8.77,28.125 c 9.44,30.203 -13.7,31.406 -37.79,31.406 -24.1,0 -47.88,-1.203 -57.37,-31.406 z m 244.05,-28.125 8.8,28.125 c 1.33,4.172 1.91,7.766 2.07,10.898 -6.01,-0.605 -12.07,-0.925 -18.24,-0.925 -2.61,0 -5.11,0.269 -7.7,0.386 l -18.3,-68.269 c 14.68,2.683 27.22,9.902 33.37,29.785 z M 3328.4,557.434 h 30.42 l 28,89.468 h -30.57 z m -129.18,-51.157 -6.3,-20.156 c -4.14,-13.379 -10.28,-14.703 -26.38,-14.703 -16.01,0 -20.8,1.324 -17.14,14.703 l 6.28,20.156 c 4.58,13.254 10.29,14.543 26.3,14.543 16.1,0 21.32,-1.289 17.24,-14.543 z m -10.77,35.317 c -31.3,0 -55.14,-5.266 -63.77,-32.793 l -7.87,-25.317 c -8.59,-27.546 11.98,-32.781 43.29,-32.781 31.31,0 55.2,5.235 63.78,32.781 l 7.96,25.317 c 8.58,27.527 -12.07,32.793 -43.39,32.793 z m 432.47,50.332 6.34,20.496 c 4.79,15.273 8.3,15.547 23.44,15.547 15.1,0 18.56,-0.274 13.76,-15.547 l -6.45,-20.496 c -4.68,-15.278 -8.34,-15.539 -23.39,-15.539 -15.06,0 -18.51,0.261 -13.7,15.539 z m 7.61,-35.196 c 24.08,0 47.91,1.2 57.33,31.395 l 8.75,28.125 c 9.45,30.203 -13.62,31.406 -37.76,31.406 -24.1,0 -47.91,-1.203 -57.41,-31.406 l -8.71,-28.125 c -9.39,-30.195 13.7,-31.395 37.8,-31.395 z m -112.05,0.704 26.07,83.281 c -10.79,-4.641 -22.1,-8.281 -33.89,-10.742 l -22.59,-72.539 z m 48.73,0 27.95,89.48 h -30.85 l -27.92,-89.48 z m 545.35,161.062 -6.4,-20.543 c -4.82,-15.265 -8.34,-15.492 -23.65,-15.492 -15.23,0 -18.71,0.227 -13.94,15.492 l 6.45,20.543 c 4.78,15.254 8.41,15.492 23.64,15.492 15.15,0 18.67,-0.238 13.9,-15.492 z m -7.75,35.164 c -24.35,0 -48.36,-1.199 -57.85,-31.371 l -8.79,-28.117 c -9.45,-30.219 13.85,-31.418 38.2,-31.418 24.34,0 48.34,1.199 57.81,31.418 l 8.79,28.117 c 9.43,30.172 -13.95,31.371 -38.16,31.371 z m -92.35,-90.176 27.9,89.496 h -30.72 l -27.93,-89.496 z m -290.19,-16.582 -28.01,-89.468 h 30.55 l 27.89,89.468 z m 259.56,-34.48 -6.4,-20.496 c -4.89,-15.278 -8.44,-15.539 -23.51,-15.539 -15.06,0 -18.51,0.261 -13.7,15.539 l 6.32,20.496 c 4.81,15.273 8.34,15.547 23.47,15.547 15.11,0 18.49,-0.274 13.82,-15.547 z m -7.62,35.234 c -24.13,0 -48.03,-1.203 -57.33,-31.406 l -8.9,-28.125 c -9.34,-30.195 13.7,-31.395 37.8,-31.395 24.09,0 48,1.2 57.36,31.395 l 8.79,28.125 c 9.44,30.203 -13.59,31.406 -37.72,31.406 z m -658.99,15.828 12.38,39.84 c -7.8,11.293 -14.31,23.547 -19.34,36.539 l -23.86,-76.379 z m 724.91,-106.05 27.86,89.468 h -30.43 l -28,-89.468 z m -130.61,140.519 6.43,20.543 c 4.76,15.254 8.34,15.492 23.62,15.492 15.22,0 18.67,-0.238 13.82,-15.492 l -6.34,-20.543 c -4.75,-15.265 -8.32,-15.492 -23.61,-15.492 -15.25,0 -18.68,0.227 -13.92,15.492 z m 7.83,-35.199 c 24.28,0 48.33,1.199 57.79,31.418 l 8.74,28.117 c 9.42,30.172 -13.89,31.371 -38.14,31.371 -24.36,0 -48.41,-1.199 -57.89,-31.371 l -8.69,-28.117 c -9.57,-30.219 13.79,-31.418 38.19,-31.418 z m -64,0.73 27.99,89.496 h -30.83 l -27.91,-89.496 z m -647,34.7 6.28,20.175 c 4.59,13.258 10.25,14.536 26.24,14.536 15.95,0 21.26,-1.278 17.09,-14.536 l -6.2,-20.175 c -4.22,-13.344 -10.3,-14.668 -26.31,-14.668 -15.99,0 -20.81,1.324 -17.1,14.668 z m 10.61,-35.43 c 31.27,0 55.05,5.266 63.62,32.836 l 7.93,25.285 c 8.57,27.563 -11.96,32.785 -43.18,32.785 -31.16,0 -54.98,-5.222 -63.64,-32.785 l -7.85,-25.285 c -8.62,-27.57 11.89,-32.836 43.12,-32.836 z m 533.46,35.199 6.39,20.543 c 4.82,15.254 8.4,15.492 23.73,15.492 15.1,0 18.63,-0.238 13.81,-15.492 l -6.33,-20.543 c -4.83,-15.265 -8.4,-15.492 -23.62,-15.492 -15.26,0 -18.71,0.227 -13.98,15.492 z m 7.74,-35.199 c 24.34,0 48.43,1.199 57.85,31.418 l 8.78,28.117 c 9.42,30.172 -13.87,31.371 -38.18,31.371 -24.26,0 -48.41,-1.199 -57.83,-31.371 l -8.74,-28.117 c -9.48,-30.219 13.8,-31.418 38.12,-31.418 z m 241.2,-156.348 -6.4,-20.515 c -4.81,-15.286 -8.37,-15.532 -23.68,-15.532 -15.33,0 -18.77,0.246 -13.9,15.532 l 6.35,20.515 c 4.7,15.254 8.33,15.496 23.7,15.496 15.2,0 18.75,-0.242 13.93,-15.496 z m -7.87,35.188 c -24.32,0 -48.47,-1.203 -57.9,-31.36 l -8.82,-28.191 c -9.35,-30.18 14.02,-31.34 38.34,-31.34 24.41,0 48.58,1.16 57.98,31.34 l 8.77,28.191 c 9.4,30.157 -13.97,31.36 -38.37,31.36 z m 66.72,15.84 h 30.51 l 28,89.468 h -30.55 z m -162.14,-16.555 -27.98,-89.473 h 30.92 l 27.93,89.473 z m 131.67,-89.473 h 30.89 l 27.92,89.473 h -30.78 z m -387.36,246.547 6.4,20.543 c 4.81,15.254 8.36,15.492 23.72,15.492 15.11,0 18.63,-0.238 13.81,-15.492 l -6.33,-20.543 c -4.82,-15.265 -8.4,-15.492 -23.64,-15.492 -15.23,0 -18.71,0.227 -13.96,15.492 z m 7.74,-35.199 c 24.34,0 48.43,1.199 57.86,31.418 l 8.77,28.117 c 9.39,30.172 -13.91,31.371 -38.18,31.371 -11.51,0 -22.97,-0.363 -32.87,-3.887 -7.45,-23.214 -19.64,-44.293 -35.28,-62.273 -4.08,-23.66 17.33,-24.746 39.7,-24.746 z m 262.22,-15.852 h -30.39 l -28.01,-89.468 h 30.49 z m -129.75,-54.976 6.34,20.496 c 4.83,15.273 8.32,15.547 23.44,15.547 15.11,0 18.51,-0.274 13.76,-15.547 l -6.4,-20.496 c -4.74,-15.278 -8.39,-15.539 -23.49,-15.539 -15.05,0 -18.49,0.261 -13.65,15.539 z m 7.53,-35.196 c 24.09,0 47.95,1.2 57.34,31.395 l 8.87,28.125 c 9.39,30.203 -13.72,31.406 -37.82,31.406 -24.05,0 -47.98,-1.203 -57.3,-31.406 l -8.86,-28.125 c -9.4,-30.195 13.64,-31.395 37.77,-31.395"
             style="fill:url(#linearGradient22462);fill-opacity:1.0;fill-rule:nonzero;stroke:none;stroke-width:2.25000006;stroke-miterlimit:4;stroke-dasharray:none;stroke-opacity:0.99864125;opacity:1"
             id="path19696" /></g></g></g></g></svg>
